<mxfile host="Electron" modified="2024-01-10T10:33:57.219Z" agent="Mozilla/5.0 (Macintosh; Intel Mac OS X 10_15_7) AppleWebKit/537.36 (KHTML, like Gecko) draw.io/22.1.16 Chrome/120.0.6099.109 Electron/28.1.0 Safari/537.36" etag="uzSu31kT1Dm-c1dKkMrw" version="22.1.16" type="device">
  <diagram name="Page-1" id="ZRe_wIOORr0k_d4isBBX">
    <mxGraphModel dx="2960" dy="2139" grid="1" gridSize="10" guides="1" tooltips="1" connect="1" arrows="1" fold="1" page="1" pageScale="1" pageWidth="1169" pageHeight="827" math="0" shadow="0">
      <root>
        <mxCell id="0" />
        <mxCell id="1" parent="0" />
        <mxCell id="l4elXfhYGXROxwvpLcCw-24" value="" style="rounded=0;whiteSpace=wrap;html=1;fontSize=16;fillColor=none;" parent="1" vertex="1">
          <mxGeometry x="-1140" y="-810" width="186" height="780" as="geometry" />
        </mxCell>
        <mxCell id="l4elXfhYGXROxwvpLcCw-27" value="&lt;i&gt;&lt;b&gt;SD-JWT (Decoded)&lt;/b&gt;&lt;/i&gt;" style="text;strokeColor=none;fillColor=none;html=1;align=center;verticalAlign=middle;whiteSpace=wrap;rounded=0;fontSize=16;" parent="1" vertex="1">
          <mxGeometry x="-1136.5" y="-800" width="179" height="34" as="geometry" />
        </mxCell>
        <mxCell id="l4elXfhYGXROxwvpLcCw-32" style="edgeStyle=none;curved=1;rounded=0;orthogonalLoop=1;jettySize=auto;html=1;exitX=1;exitY=0.5;exitDx=0;exitDy=0;fontSize=12;startSize=8;endSize=8;entryX=0;entryY=0.5;entryDx=0;entryDy=0;dashed=1;" parent="1" source="l4elXfhYGXROxwvpLcCw-28" target="ER31MuB_UY-cCxpY8kVJ-3" edge="1">
          <mxGeometry relative="1" as="geometry">
            <mxPoint x="-887" y="-775" as="targetPoint" />
          </mxGeometry>
        </mxCell>
        <mxCell id="l4elXfhYGXROxwvpLcCw-28" value="Header" style="text;strokeColor=none;fillColor=none;html=1;align=left;verticalAlign=middle;whiteSpace=wrap;rounded=0;fontSize=16;fontStyle=2" parent="1" vertex="1">
          <mxGeometry x="-1110" y="-730" width="60" height="30" as="geometry" />
        </mxCell>
        <mxCell id="l4elXfhYGXROxwvpLcCw-29" value="Payload&amp;nbsp;&amp;nbsp;" style="text;strokeColor=none;fillColor=none;html=1;align=left;verticalAlign=middle;whiteSpace=wrap;rounded=0;fontSize=16;fontStyle=2" parent="1" vertex="1">
          <mxGeometry x="-1100" y="-415" width="70" height="30" as="geometry" />
        </mxCell>
        <mxCell id="l4elXfhYGXROxwvpLcCw-30" value="Signature" style="text;strokeColor=none;fillColor=none;html=1;align=left;verticalAlign=middle;whiteSpace=wrap;rounded=0;fontSize=16;fontStyle=2" parent="1" vertex="1">
          <mxGeometry x="-1110" y="-109" width="80" height="30" as="geometry" />
        </mxCell>
        <mxCell id="l4elXfhYGXROxwvpLcCw-33" style="edgeStyle=none;curved=1;rounded=0;orthogonalLoop=1;jettySize=auto;html=1;fontSize=12;startSize=8;endSize=8;dashed=1;exitX=1;exitY=0.5;exitDx=0;exitDy=0;entryX=0;entryY=0.5;entryDx=0;entryDy=0;" parent="1" source="l4elXfhYGXROxwvpLcCw-29" target="LiLZqgPSFhY8t4uFKLDl-37" edge="1">
          <mxGeometry relative="1" as="geometry">
            <mxPoint x="-1037" y="-480" as="sourcePoint" />
            <mxPoint x="-930" y="-290" as="targetPoint" />
          </mxGeometry>
        </mxCell>
        <mxCell id="l4elXfhYGXROxwvpLcCw-34" style="edgeStyle=none;curved=1;rounded=0;orthogonalLoop=1;jettySize=auto;html=1;fontSize=12;startSize=8;endSize=8;entryX=0;entryY=0.5;entryDx=0;entryDy=0;dashed=1;exitX=1;exitY=0.5;exitDx=0;exitDy=0;" parent="1" source="l4elXfhYGXROxwvpLcCw-30" target="l4elXfhYGXROxwvpLcCw-14" edge="1">
          <mxGeometry relative="1" as="geometry">
            <mxPoint x="-1030" y="65" as="sourcePoint" />
            <mxPoint x="-887" y="-132" as="targetPoint" />
          </mxGeometry>
        </mxCell>
        <mxCell id="ER31MuB_UY-cCxpY8kVJ-5" value="" style="group" parent="1" vertex="1" connectable="0">
          <mxGeometry x="-889.49" y="-119" width="870" height="50" as="geometry" />
        </mxCell>
        <mxCell id="l4elXfhYGXROxwvpLcCw-14" value="" style="rounded=1;whiteSpace=wrap;html=1;fontSize=16;fillColor=none;dashed=1;dashPattern=1 2;" parent="ER31MuB_UY-cCxpY8kVJ-5" vertex="1">
          <mxGeometry width="870" height="50" as="geometry" />
        </mxCell>
        <mxCell id="JoZCwbDOvjXTbyjPgoR8-8" value="XaOOh4ljklxH7L99RTVSfOl..." style="text;strokeColor=none;fillColor=none;html=1;align=left;verticalAlign=middle;whiteSpace=wrap;rounded=0;fontSize=16;" parent="ER31MuB_UY-cCxpY8kVJ-5" vertex="1">
          <mxGeometry x="20" y="10" width="410" height="30" as="geometry" />
        </mxCell>
        <mxCell id="XJYCpRgOPPuGHDB51-7d-9" value="" style="group" parent="1" vertex="1" connectable="0">
          <mxGeometry x="-889.49" y="-755" width="870" height="80" as="geometry" />
        </mxCell>
        <mxCell id="ER31MuB_UY-cCxpY8kVJ-3" value="" style="rounded=1;whiteSpace=wrap;html=1;fontSize=16;fillColor=none;dashed=1;dashPattern=1 2;" parent="XJYCpRgOPPuGHDB51-7d-9" vertex="1">
          <mxGeometry width="870" height="80" as="geometry" />
        </mxCell>
        <mxCell id="XJYCpRgOPPuGHDB51-7d-8" value="" style="group" parent="XJYCpRgOPPuGHDB51-7d-9" vertex="1" connectable="0">
          <mxGeometry x="20" y="10" width="830" height="60" as="geometry" />
        </mxCell>
        <mxCell id="XJYCpRgOPPuGHDB51-7d-5" value="" style="group" parent="XJYCpRgOPPuGHDB51-7d-8" vertex="1" connectable="0">
          <mxGeometry width="179" height="60" as="geometry" />
        </mxCell>
        <mxCell id="l4elXfhYGXROxwvpLcCw-8" value="&lt;i&gt;kid: aB8J-_Z&lt;/i&gt;" style="text;strokeColor=none;fillColor=none;html=1;align=left;verticalAlign=middle;whiteSpace=wrap;rounded=0;fontSize=16;flipH=0;" parent="XJYCpRgOPPuGHDB51-7d-5" vertex="1">
          <mxGeometry width="111" height="30" as="geometry" />
        </mxCell>
        <mxCell id="XJYCpRgOPPuGHDB51-7d-1" value="&lt;i&gt;iss: https://example.com&lt;/i&gt;" style="text;strokeColor=none;fillColor=none;html=1;align=left;verticalAlign=middle;whiteSpace=wrap;rounded=0;fontSize=16;flipH=0;" parent="XJYCpRgOPPuGHDB51-7d-5" vertex="1">
          <mxGeometry y="30" width="179" height="30" as="geometry" />
        </mxCell>
        <mxCell id="XJYCpRgOPPuGHDB51-7d-6" value="" style="group" parent="XJYCpRgOPPuGHDB51-7d-8" vertex="1" connectable="0">
          <mxGeometry x="352" width="130" height="60" as="geometry" />
        </mxCell>
        <mxCell id="l4elXfhYGXROxwvpLcCw-9" value="&lt;i&gt;alg: ES384&lt;/i&gt;" style="text;strokeColor=none;fillColor=none;html=1;align=left;verticalAlign=middle;whiteSpace=wrap;rounded=0;fontSize=16;flipH=0;" parent="XJYCpRgOPPuGHDB51-7d-6" vertex="1">
          <mxGeometry width="114" height="30" as="geometry" />
        </mxCell>
        <mxCell id="XJYCpRgOPPuGHDB51-7d-3" value="&lt;i&gt;iat:&lt;/i&gt;&amp;nbsp;1704690029" style="text;strokeColor=none;fillColor=none;html=1;align=left;verticalAlign=middle;whiteSpace=wrap;rounded=0;fontSize=16;flipH=0;" parent="XJYCpRgOPPuGHDB51-7d-6" vertex="1">
          <mxGeometry y="30" width="130" height="30" as="geometry" />
        </mxCell>
        <mxCell id="XJYCpRgOPPuGHDB51-7d-7" value="" style="group" parent="XJYCpRgOPPuGHDB51-7d-8" vertex="1" connectable="0">
          <mxGeometry x="660" width="170" height="60" as="geometry" />
        </mxCell>
        <mxCell id="l4elXfhYGXROxwvpLcCw-11" value="&lt;i&gt;cty: vp+ld+json&lt;/i&gt;" style="text;strokeColor=none;fillColor=none;html=1;align=left;verticalAlign=middle;whiteSpace=wrap;rounded=0;fontSize=16;flipH=0;" parent="XJYCpRgOPPuGHDB51-7d-7" vertex="1">
          <mxGeometry width="131" height="30" as="geometry" />
        </mxCell>
        <mxCell id="XJYCpRgOPPuGHDB51-7d-4" value="&lt;i&gt;typ: vp+ld+json+sd-jwt&lt;/i&gt;" style="text;strokeColor=none;fillColor=none;html=1;align=left;verticalAlign=middle;whiteSpace=wrap;rounded=0;fontSize=16;flipH=0;" parent="XJYCpRgOPPuGHDB51-7d-7" vertex="1">
          <mxGeometry y="30" width="170" height="30" as="geometry" />
        </mxCell>
        <mxCell id="EJfvD8XrKpH-nKLwAgsP-6" value="" style="group" parent="1" vertex="1" connectable="0">
          <mxGeometry x="-889.49" y="-655" width="870" height="510" as="geometry" />
        </mxCell>
        <mxCell id="LiLZqgPSFhY8t4uFKLDl-37" value="" style="rounded=1;whiteSpace=wrap;html=1;fontSize=16;fillColor=none;dashed=1;dashPattern=1 2;arcSize=2;" parent="EJfvD8XrKpH-nKLwAgsP-6" vertex="1">
          <mxGeometry width="870" height="510" as="geometry" />
        </mxCell>
        <mxCell id="LiLZqgPSFhY8t4uFKLDl-7" value="" style="rounded=1;whiteSpace=wrap;html=1;fontSize=16;fillColor=none;dashed=1;dashPattern=12 12;" parent="EJfvD8XrKpH-nKLwAgsP-6" vertex="1">
          <mxGeometry x="14.990000000000009" y="33.559999999999945" width="840.0454029511918" height="124.09752883031302" as="geometry" />
        </mxCell>
        <mxCell id="I-3xDNqU13IutiKupr62-10" style="edgeStyle=none;curved=1;rounded=0;orthogonalLoop=1;jettySize=auto;html=1;exitX=0;exitY=0.5;exitDx=0;exitDy=0;fontSize=12;startSize=8;endSize=8;" parent="EJfvD8XrKpH-nKLwAgsP-6" edge="1">
          <mxGeometry relative="1" as="geometry">
            <mxPoint x="28.49000000000001" y="154" as="sourcePoint" />
            <mxPoint x="28.49000000000001" y="154" as="targetPoint" />
          </mxGeometry>
        </mxCell>
        <mxCell id="I-3xDNqU13IutiKupr62-11" style="edgeStyle=none;curved=1;rounded=0;orthogonalLoop=1;jettySize=auto;html=1;exitX=1;exitY=0.5;exitDx=0;exitDy=0;fontSize=12;startSize=8;endSize=8;" parent="EJfvD8XrKpH-nKLwAgsP-6" edge="1">
          <mxGeometry relative="1" as="geometry">
            <mxPoint x="218.49" y="154" as="sourcePoint" />
            <mxPoint x="218.49" y="154" as="targetPoint" />
          </mxGeometry>
        </mxCell>
        <mxCell id="I-3xDNqU13IutiKupr62-59" value="&lt;i style=&quot;border-color: var(--border-color); color: rgb(0, 0, 0); font-family: Helvetica; font-size: 16px; font-variant-ligatures: normal; font-variant-caps: normal; font-weight: 400; letter-spacing: normal; orphans: 2; text-indent: 0px; text-transform: none; widows: 2; word-spacing: 0px; -webkit-text-stroke-width: 0px; background-color: rgb(251, 251, 251); text-decoration-thickness: initial; text-decoration-style: initial; text-decoration-color: initial;&quot;&gt;&lt;font style=&quot;border-color: var(--border-color); font-size: 13px;&quot;&gt;verifiable presentation graph&lt;br&gt;(serialized in JSON)&lt;br&gt;&lt;/font&gt;&lt;/i&gt;" style="text;whiteSpace=wrap;html=1;fontSize=16;align=center;rotation=0;" parent="EJfvD8XrKpH-nKLwAgsP-6" vertex="1">
          <mxGeometry x="641.49" y="31" width="205.5" height="30" as="geometry" />
        </mxCell>
        <mxCell id="LiLZqgPSFhY8t4uFKLDl-8" value="" style="rounded=1;whiteSpace=wrap;html=1;fontSize=16;fillColor=none;dashed=1;dashPattern=12 12;" parent="EJfvD8XrKpH-nKLwAgsP-6" vertex="1">
          <mxGeometry x="14.980000000000018" y="250" width="840.05" height="230" as="geometry" />
        </mxCell>
        <UserObject label="&lt;i&gt;&lt;font color=&quot;#000000&quot;&gt;Presentation ABC&lt;/font&gt;&lt;/i&gt;" id="LiLZqgPSFhY8t4uFKLDl-9">
          <mxCell style="ellipse;whiteSpace=wrap;html=1;fontSize=16;fillColor=none;strokeWidth=2;strokeColor=#336600;" parent="EJfvD8XrKpH-nKLwAgsP-6" vertex="1">
            <mxGeometry x="379.6460726447219" y="90.43509324546949" width="140.32576617480134" height="37.43926985172982" as="geometry" />
          </mxCell>
        </UserObject>
        <UserObject label="&lt;i&gt;&lt;font color=&quot;#000000&quot;&gt;VerifiablePresentation&lt;/font&gt;&lt;/i&gt;" id="LiLZqgPSFhY8t4uFKLDl-10">
          <mxCell style="ellipse;whiteSpace=wrap;html=1;fontSize=16;fillColor=none;strokeWidth=2;strokeColor=#336600;" parent="EJfvD8XrKpH-nKLwAgsP-6" vertex="1">
            <mxGeometry x="44.58250851305331" y="85.28981878088962" width="171.82746878547107" height="47.72981878088962" as="geometry" />
          </mxCell>
        </UserObject>
        <UserObject label="&lt;i&gt;&lt;font color=&quot;#000000&quot;&gt;DoNotArchive&lt;/font&gt;&lt;/i&gt;" id="LiLZqgPSFhY8t4uFKLDl-11">
          <mxCell style="ellipse;whiteSpace=wrap;html=1;fontSize=16;fillColor=none;strokeWidth=2;strokeColor=#336600;" parent="EJfvD8XrKpH-nKLwAgsP-6" vertex="1">
            <mxGeometry x="685.1171282633371" y="90.43509324546949" width="140.32576617480134" height="37.43926985172982" as="geometry" />
          </mxCell>
        </UserObject>
        <mxCell id="LiLZqgPSFhY8t4uFKLDl-12" style="edgeStyle=none;curved=1;rounded=0;orthogonalLoop=1;jettySize=auto;html=1;exitX=1;exitY=0.5;exitDx=0;exitDy=0;entryX=0;entryY=0.5;entryDx=0;entryDy=0;fontSize=12;startSize=8;endSize=8;strokeWidth=2;" parent="EJfvD8XrKpH-nKLwAgsP-6" source="LiLZqgPSFhY8t4uFKLDl-9" target="LiLZqgPSFhY8t4uFKLDl-11" edge="1">
          <mxGeometry relative="1" as="geometry" />
        </mxCell>
        <mxCell id="LiLZqgPSFhY8t4uFKLDl-13" value="&amp;nbsp;termsOfUse&amp;nbsp;" style="edgeLabel;html=1;align=center;verticalAlign=middle;resizable=0;points=[];fontSize=16;" parent="LiLZqgPSFhY8t4uFKLDl-12" vertex="1" connectable="0">
          <mxGeometry x="-0.0295" relative="1" as="geometry">
            <mxPoint as="offset" />
          </mxGeometry>
        </mxCell>
        <mxCell id="LiLZqgPSFhY8t4uFKLDl-14" style="edgeStyle=none;curved=1;rounded=0;orthogonalLoop=1;jettySize=auto;html=1;exitX=0;exitY=0.5;exitDx=0;exitDy=0;entryX=1;entryY=0.5;entryDx=0;entryDy=0;fontSize=12;startSize=8;endSize=8;strokeWidth=2;" parent="EJfvD8XrKpH-nKLwAgsP-6" source="LiLZqgPSFhY8t4uFKLDl-9" target="LiLZqgPSFhY8t4uFKLDl-10" edge="1">
          <mxGeometry relative="1" as="geometry">
            <mxPoint x="298.50532349602724" y="195.44069456342663" as="sourcePoint" />
            <mxPoint x="589.6574233825199" y="195.44069456342663" as="targetPoint" />
          </mxGeometry>
        </mxCell>
        <mxCell id="LiLZqgPSFhY8t4uFKLDl-15" value="&amp;nbsp;type&amp;nbsp;" style="edgeLabel;html=1;align=center;verticalAlign=middle;resizable=0;points=[];fontSize=16;" parent="LiLZqgPSFhY8t4uFKLDl-14" vertex="1" connectable="0">
          <mxGeometry x="-0.1806" y="-3" relative="1" as="geometry">
            <mxPoint as="offset" />
          </mxGeometry>
        </mxCell>
        <mxCell id="LiLZqgPSFhY8t4uFKLDl-16" style="edgeStyle=none;curved=1;rounded=0;orthogonalLoop=1;jettySize=auto;html=1;entryX=0.517;entryY=-0.003;entryDx=0;entryDy=0;fontSize=12;startSize=8;endSize=8;strokeWidth=2;entryPerimeter=0;exitX=0.5;exitY=1;exitDx=0;exitDy=0;" parent="EJfvD8XrKpH-nKLwAgsP-6" source="LiLZqgPSFhY8t4uFKLDl-9" target="LiLZqgPSFhY8t4uFKLDl-8" edge="1">
          <mxGeometry relative="1" as="geometry">
            <mxPoint x="474.151180476731" y="142.5656013179571" as="sourcePoint" />
            <mxPoint x="-11.960183881952275" y="268.1408453377265" as="targetPoint" />
          </mxGeometry>
        </mxCell>
        <mxCell id="LiLZqgPSFhY8t4uFKLDl-17" value="verifiableCredential" style="edgeLabel;html=1;align=center;verticalAlign=middle;resizable=0;points=[];fontSize=16;" parent="LiLZqgPSFhY8t4uFKLDl-16" vertex="1" connectable="0">
          <mxGeometry x="-0.0295" relative="1" as="geometry">
            <mxPoint as="offset" />
          </mxGeometry>
        </mxCell>
        <mxCell id="LiLZqgPSFhY8t4uFKLDl-23" style="edgeStyle=none;curved=1;rounded=0;orthogonalLoop=1;jettySize=auto;html=1;exitX=0;exitY=0.5;exitDx=0;exitDy=0;fontSize=12;startSize=8;endSize=8;" parent="EJfvD8XrKpH-nKLwAgsP-6" edge="1">
          <mxGeometry relative="1" as="geometry">
            <mxPoint x="54.12847900113502" y="446.12724876441507" as="sourcePoint" />
            <mxPoint x="54.12847900113502" y="446.12724876441507" as="targetPoint" />
          </mxGeometry>
        </mxCell>
        <mxCell id="LiLZqgPSFhY8t4uFKLDl-24" style="edgeStyle=none;curved=1;rounded=0;orthogonalLoop=1;jettySize=auto;html=1;exitX=1;exitY=0.5;exitDx=0;exitDy=0;fontSize=12;startSize=8;endSize=8;" parent="EJfvD8XrKpH-nKLwAgsP-6" edge="1">
          <mxGeometry relative="1" as="geometry">
            <mxPoint x="235.50191827468757" y="446.12724876441507" as="sourcePoint" />
            <mxPoint x="235.50191827468757" y="446.12724876441507" as="targetPoint" />
          </mxGeometry>
        </mxCell>
        <mxCell id="8jJuMWRubzlYc9QQxYml-1" value="&lt;i style=&quot;border-color: var(--border-color); color: rgb(0, 0, 0); font-family: Helvetica; font-size: 16px; font-variant-ligatures: normal; font-variant-caps: normal; font-weight: 400; letter-spacing: normal; orphans: 2; text-indent: 0px; text-transform: none; widows: 2; word-spacing: 0px; -webkit-text-stroke-width: 0px; background-color: rgb(251, 251, 251); text-decoration-thickness: initial; text-decoration-style: initial; text-decoration-color: initial;&quot;&gt;&lt;font style=&quot;border-color: var(--border-color); font-size: 13px;&quot;&gt;enveloped verifiable credential graph&lt;br&gt;(serialized in JSON)&lt;br&gt;&lt;/font&gt;&lt;/i&gt;" style="text;whiteSpace=wrap;html=1;fontSize=16;align=center;rotation=0;" parent="EJfvD8XrKpH-nKLwAgsP-6" vertex="1">
          <mxGeometry x="597.94" y="245.85000000000002" width="227.5" height="30" as="geometry" />
        </mxCell>
        <mxCell id="EJfvD8XrKpH-nKLwAgsP-5" value="" style="group" parent="EJfvD8XrKpH-nKLwAgsP-6" vertex="1" connectable="0">
          <mxGeometry x="224.81000000000006" y="290" width="450" height="167.73000000000002" as="geometry" />
        </mxCell>
        <UserObject label="&lt;i&gt;EnvelopedVerifiableCredential&lt;/i&gt;" id="LiLZqgPSFhY8t4uFKLDl-20">
          <mxCell style="ellipse;whiteSpace=wrap;html=1;fontSize=16;fillColor=none;strokeWidth=2;strokeColor=#336600;" parent="EJfvD8XrKpH-nKLwAgsP-5" vertex="1">
            <mxGeometry x="95.45" y="120" width="259.1" height="40" as="geometry" />
          </mxCell>
        </UserObject>
        <UserObject label="&lt;i&gt;data:application/vc+ld+json+sd-jwt;QzVjV...RMjU&lt;/i&gt;" id="LiLZqgPSFhY8t4uFKLDl-21">
          <mxCell style="ellipse;whiteSpace=wrap;html=1;fontSize=16;fillColor=none;strokeWidth=2;strokeColor=#336600;" parent="EJfvD8XrKpH-nKLwAgsP-5" vertex="1">
            <mxGeometry width="450" height="37.44" as="geometry" />
          </mxCell>
        </UserObject>
        <mxCell id="EJfvD8XrKpH-nKLwAgsP-4" value="&lt;font style=&quot;font-size: 16px;&quot;&gt;type&lt;/font&gt;" style="edgeStyle=none;curved=1;rounded=0;orthogonalLoop=1;jettySize=auto;html=1;exitX=0.5;exitY=1;exitDx=0;exitDy=0;entryX=0.5;entryY=0;entryDx=0;entryDy=0;fontSize=12;startSize=8;endSize=8;strokeWidth=2;" parent="EJfvD8XrKpH-nKLwAgsP-5" source="LiLZqgPSFhY8t4uFKLDl-21" target="LiLZqgPSFhY8t4uFKLDl-20" edge="1">
          <mxGeometry relative="1" as="geometry" />
        </mxCell>
        <mxCell id="EJfvD8XrKpH-nKLwAgsP-7" style="edgeStyle=none;curved=1;rounded=0;orthogonalLoop=1;jettySize=auto;html=1;exitX=0.5;exitY=1;exitDx=0;exitDy=0;fontSize=12;startSize=8;endSize=8;" parent="1" source="l4elXfhYGXROxwvpLcCw-24" target="l4elXfhYGXROxwvpLcCw-24" edge="1">
          <mxGeometry relative="1" as="geometry" />
        </mxCell>
      </root>
    </mxGraphModel>
  </diagram>
</mxfile>
